<svg width="20" height="20" viewBox="0 0 20 20" fill="none" xmlns="http://www.w3.org/2000/svg">
<g clip-path="url(#clip0_23_2339)">
<path d="M6.66675 6.66675V4.33341C6.66675 3.39999 6.66675 2.93328 6.8484 2.57676C7.00819 2.26316 7.26316 2.00819 7.57676 1.8484C7.93328 1.66675 8.39999 1.66675 9.33341 1.66675H15.6667C16.6002 1.66675 17.0669 1.66675 17.4234 1.8484C17.737 2.00819 17.992 2.26316 18.1518 2.57676C18.3334 2.93328 18.3334 3.39999 18.3334 4.33341V10.6667C18.3334 11.6002 18.3334 12.0669 18.1518 12.4234C17.992 12.737 17.737 12.992 17.4234 13.1518C17.0669 13.3334 16.6002 13.3334 15.6667 13.3334H13.3334M4.33341 18.3334H10.6667C11.6002 18.3334 12.0669 18.3334 12.4234 18.1518C12.737 17.992 12.992 17.737 13.1518 17.4234C13.3334 17.0669 13.3334 16.6002 13.3334 15.6667V9.33341C13.3334 8.39999 13.3334 7.93328 13.1518 7.57676C12.992 7.26316 12.737 7.00819 12.4234 6.8484C12.0669 6.66675 11.6002 6.66675 10.6667 6.66675H4.33341C3.39999 6.66675 2.93328 6.66675 2.57676 6.8484C2.26316 7.00819 2.00819 7.26316 1.8484 7.57676C1.66675 7.93328 1.66675 8.39999 1.66675 9.33341V15.6667C1.66675 16.6002 1.66675 17.0669 1.8484 17.4234C2.00819 17.737 2.26316 17.992 2.57676 18.1518C2.93328 18.3334 3.39999 18.3334 4.33341 18.3334Z" stroke="#475467" stroke-width="1.66667" stroke-linecap="round" stroke-linejoin="round"/>
</g>
<defs>
<clipPath id="clip0_23_2339">
<rect width="20" height="20" fill="white"/>
</clipPath>
</defs>
</svg>
