<svg width="17" height="18" viewBox="0 0 17 18" fill="none" xmlns="http://www.w3.org/2000/svg">
<path d="M5.8335 16.4442V10.2775C5.8335 9.81082 5.8335 9.57747 5.92432 9.39921C6.00422 9.24241 6.1317 9.11492 6.2885 9.03503C6.46676 8.9442 6.70012 8.9442 7.16683 8.9442H9.50016C9.96687 8.9442 10.2002 8.9442 10.3785 9.03503C10.5353 9.11492 10.6628 9.24241 10.7427 9.39921C10.8335 9.57747 10.8335 9.81082 10.8335 10.2775V16.4442M7.51491 1.24755L1.86299 5.64348C1.48518 5.93733 1.29628 6.08426 1.16019 6.26826C1.03963 6.43125 0.949831 6.61487 0.895186 6.81009C0.833496 7.03048 0.833496 7.26979 0.833496 7.74842V13.7775C0.833496 14.711 0.833496 15.1777 1.01515 15.5342C1.17494 15.8478 1.42991 16.1028 1.74351 16.2625C2.10003 16.4442 2.56674 16.4442 3.50016 16.4442H13.1668C14.1003 16.4442 14.567 16.4442 14.9235 16.2625C15.2371 16.1028 15.4921 15.8478 15.6518 15.5342C15.8335 15.1777 15.8335 14.711 15.8335 13.7775V7.74842C15.8335 7.26979 15.8335 7.03048 15.7718 6.81009C15.7172 6.61487 15.6274 6.43125 15.5068 6.26826C15.3707 6.08426 15.1818 5.93734 14.804 5.64349L9.15208 1.24755C8.85931 1.01984 8.71293 0.90598 8.55128 0.862214C8.40866 0.823598 8.25833 0.823598 8.11571 0.862214C7.95407 0.90598 7.80768 1.01984 7.51491 1.24755Z" stroke="#344054" stroke-width="1.66667" stroke-linecap="round" stroke-linejoin="round"/>
</svg>
